<?xml version="1.0" encoding="UTF-8" standalone="no"?>
<svg
   fill="none"
   viewBox="0 0 24 24"
   version="1.1"
   id="svg13"
   sodipodi:docname="full_home_logo.svg"
   xml:space="preserve"
   inkscape:version="1.3.2 (091e20e, 2023-11-25, custom)"
   inkscape:export-filename="full_home_logo.png"
   inkscape:export-xdpi="512"
   inkscape:export-ydpi="512"
   xmlns:inkscape="http://www.inkscape.org/namespaces/inkscape"
   xmlns:sodipodi="http://sodipodi.sourceforge.net/DTD/sodipodi-0.dtd"
   xmlns="http://www.w3.org/2000/svg"
   xmlns:svg="http://www.w3.org/2000/svg"><sodipodi:namedview
     id="namedview13"
     pagecolor="#ffffff"
     bordercolor="#000000"
     borderopacity="0.25"
     inkscape:showpageshadow="2"
     inkscape:pageopacity="0.0"
     inkscape:pagecheckerboard="0"
     inkscape:deskcolor="#d1d1d1"
     inkscape:zoom="14.625389"
     inkscape:cx="12.649236"
     inkscape:cy="14.153469"
     inkscape:window-width="1920"
     inkscape:window-height="1052"
     inkscape:window-x="-8"
     inkscape:window-y="-8"
     inkscape:window-maximized="1"
     inkscape:current-layer="layer1" /><path
     d="M17 21H7l-.803-2L7 17h10l.5 2-.5 2Z"
     fill="#0F9D58"
     id="path1" /><path
     d="M21 11.416V20a1 1 0 0 1-1 1h-3v-8.334l-5-5 .688-1.937 2.12-.874.002.002 5.929 5.936a.93.93 0 0 1 .261.623Z"
     fill="#4285F4"
     id="path2" /><path
     d="M7 12.666V21H4a1 1 0 0 1-1-1v-3.334l1.875-2.844L7 12.666Z"
     fill="#F4B400"
     id="path3" /><path
     d="M14.81 4.857 12 7.668l-9 9v-5.25a.972.972 0 0 1 .261-.624l8.033-8.042c.181-.18.456-.292.706-.292.25 0 .525.112.706.292l2.101 2.104"
     fill="#DB4437"
     id="path4" /><path
     opacity=".2"
     d="M20.739 10.793 12.705 2.75A1.042 1.042 0 0 0 12 2.46c-.25 0-.525.112-.706.292L3.26 10.792a.979.979 0 0 0-.261.624v.125a.972.972 0 0 1 .261-.623l8.034-8.042c.181-.18.456-.292.706-.292.25 0 .525.112.706.292l8.034 8.041a.93.93 0 0 1 .261.624v-.125a.936.936 0 0 0-.262-.623Z"
     fill="#fff"
     id="path5" /><path
     opacity=".2"
     d="M4 20.875a1 1 0 0 1-1-1V20a1 1 0 0 0 1 1h3v-.125H4Z"
     fill="#BF360C"
     id="path6" /><path
     opacity=".2"
     d="M20 20.875h-3V21h3a1 1 0 0 0 1-1v-.125a1 1 0 0 1-1 1Z"
     fill="#1A237E"
     id="path7" /><path
     opacity=".2"
     d="M12 20.875H7V21h10v-.125h-5Z"
     fill="#263238"
     id="path8" /><path
     opacity=".2"
     d="M12 17H7v.125h10V17h-5Z"
     fill="#fff"
     id="path9" /><path
     d="M20.739 10.793 12.705 2.75A1.042 1.042 0 0 0 12 2.46c-.25 0-.525.112-.706.292L3.26 10.792a.979.979 0 0 0-.261.624v8.625a1 1 0 0 0 1 1h16a1 1 0 0 0 1-1v-8.625a.923.923 0 0 0-.26-.623ZM17 17H7v-4.334l5-5 5 5V17Z"
     fill="url(#a)"
     id="path10" /><path
     opacity=".2"
     d="m12.089 7.577-.089.09 5 5v-.178l-4.911-4.912Z"
     fill="#1A237E"
     id="path11" /><path
     opacity=".2"
     d="M7 12.666v.178l-4 4v-.178l4-4Z"
     fill="#BF360C"
     id="path12" /><defs
     id="defs13"><radialGradient
       id="a"
       cx="0"
       cy="0"
       r="1"
       gradientUnits="userSpaceOnUse"
       gradientTransform="translate(7.875 6.063) scale(19.3141)"><stop
         stop-color="#fff"
         stop-opacity=".1"
         id="stop12" /><stop
         offset="1"
         stop-color="#fff"
         stop-opacity="0"
         id="stop13" /></radialGradient></defs><g
     inkscape:groupmode="layer"
     id="layer1"
     inkscape:label="Layer 1"><g
       style="fill:#000000;stroke:#000000"
       id="g14"
       transform="matrix(0.0525642,0,0,0.0525642,4.3465167,7.2048989)"><g
         id="SVGRepo_bgCarrier"
         stroke-width="0" /><g
         id="SVGRepo_tracerCarrier"
         stroke-linecap="round"
         stroke-linejoin="round" /><g
         id="SVGRepo_iconCarrier"> <g
   id="XMLID_212_"> <g
   id="g5"> <g
   id="g4">  <path
   d="m 133.684,138.25 36.08,-27.141 c 5.077,-3.819 6.131,-10.994 2.409,-16.114 1.851,-7.6 6.62,-27.18 8.396,-34.476 l 27.451,6.685 c 1.223,0.298 2.456,-0.452 2.754,-1.675 l 2.985,-12.258 c 0.298,-1.223 -0.452,-2.456 -1.675,-2.754 l -71.59,-17.435 c -1.223,-0.298 -2.456,0.452 -2.754,1.675 l -2.985,12.258 c -0.298,1.223 0.452,2.456 1.675,2.754 l 27.451,6.685 c -0.383,1.573 -6.569,26.971 -8.943,36.72 l -16.737,12.591 -0.081,-16.188 c -0.076,-15.081 -12.404,-27.365 -27.503,-27.365 -7.162,0 -56.366,0 -62.393,0 C 26.128,62.224 20.78,77.994 20.722,89.577 l -0.429,85.382 c -0.033,6.419 5.145,11.648 11.563,11.681 0.02,0 0.04,0 0.06,0 6.348,0 11.588,-5.141 11.621,-11.564 l 0.429,-85.383 c 0.007,-1.238 1.013,-2.237 2.25,-2.233 1.237,0.003 2.238,1.008 2.238,2.244 10e-4,27.769 0.005,182.647 0.005,195.359 0,7.703 6.243,13.946 13.946,13.946 7.691,0 13.946,-6.228 13.946,-13.946 V 173.588 h 6.022 v 111.475 c 0,7.68 6.218,13.946 13.946,13.946 7.688,0 13.946,-6.227 13.946,-13.946 0,-182.046 -0.247,-82.185 -0.253,-195.357 0,-1.341 1.085,-2.428 2.425,-2.432 1.341,-0.004 2.432,1.078 2.439,2.419 0,0.001 0,0.001 0,0.001 l 0.198,39.327 c 0.05,9.573 11.019,14.94 18.61,9.229 z"
   id="path2-5" /> <polygon
   points="240.751,33.017 233.286,31.243 231.512,23.778 229.738,31.243 222.272,33.017 229.738,34.791 231.512,42.256 233.286,34.791 "
   id="polygon2" /> <polygon
   points="238.811,51.99 244.221,53.276 245.506,58.685 246.791,53.276 252.201,51.99 246.791,50.705 245.506,45.295 244.221,50.705 "
   id="polygon3" /> <polygon
   points="243.296,77.095 236.858,75.565 235.328,69.128 233.799,75.565 227.361,77.095 233.799,78.624 235.328,85.062 236.858,78.624 "
   id="polygon4" /> <path
   d="m 79.52,54.535 c 13.22,0 24.087,-10.717 24.087,-24.087 0,-13.303 -10.784,-24.087 -24.087,-24.087 -13.303,0 -24.087,10.784 -24.087,24.087 0,13.409 10.911,24.087 24.087,24.087 z"
   id="path4-4" /> </g> </g> </g> </g></g></g></svg>
